<?xml version="1.0" encoding="iso-8859-1"?>
<!-- Uploaded to: SVG Repo, www.svgrepo.com, Generator: SVG Repo Mixer Tools -->
<svg version="1.1" id="Layer_1" xmlns="http://www.w3.org/2000/svg" xmlns:xlink="http://www.w3.org/1999/xlink" 
	 viewBox="0 0 511.999 511.999" xml:space="preserve">
<polygon style="fill:#F4B2B0;" points="61.693,97.624 147.112,97.624 147.112,14.779 "/>
<g>
	<path style="fill:#B3404A;" d="M147.112,112.402H61.693c-6.018,0-11.436-3.65-13.697-9.228c-2.261-5.578-0.913-11.969,3.408-16.159
		l85.419-82.844c4.261-4.134,10.582-5.316,16.048-3.002s9.02,7.675,9.02,13.61v82.846
		C161.891,105.786,155.274,112.402,147.112,112.402z M98.158,82.845h34.175V49.7L98.158,82.845z"/>
	<path style="fill:#B3404A;" d="M450.307,319.951c-8.161,0-14.779-6.617-14.779-14.779V36.132c0-3.625-3.247-6.574-7.237-6.574
		H215.657c-8.161,0-14.779-6.616-14.779-14.779S207.497,0,215.657,0h212.634c20.29,0,36.795,16.208,36.795,36.131v269.04
		C465.086,313.334,458.47,319.951,450.307,319.951z"/>
	<path style="fill:#B3404A;" d="M428.291,511.999H83.71c-20.29,0-36.795-16.208-36.795-36.131V97.624
		c0-3.998,1.62-7.825,4.49-10.608l85.417-82.844c5.858-5.682,15.213-5.541,20.899,0.319c5.682,5.858,5.539,15.215-0.321,20.897
		l-80.929,78.49v371.99c0,3.625,3.247,6.574,7.237,6.574h344.582c3.99,0,7.237-2.95,7.237-6.574v-92.663
		c0-8.162,6.618-14.779,14.779-14.779c8.161,0,14.779,6.617,14.779,14.779v92.663C465.086,495.791,448.58,511.999,428.291,511.999z"
		/>
	<path style="fill:#B3404A;" d="M450.307,112.402h-234.65c-8.161,0-14.779-6.616-14.779-14.779s6.618-14.779,14.779-14.779h219.871
		V39.852c0-5.677-4.617-10.293-10.293-10.293H215.656c-8.161,0-14.779-6.616-14.779-14.779S207.495,0,215.656,0h209.579
		c21.973,0,39.851,17.878,39.851,39.851v57.772C465.086,105.786,458.47,112.402,450.307,112.402z"/>
</g>
<rect x="135.552" y="172.749" style="fill:#F4B2B0;" width="240.895" height="67.983"/>
<g>
	<path style="fill:#B3404A;" d="M376.448,255.506H135.553c-8.161,0-14.779-6.617-14.779-14.779v-67.983
		c0-8.162,6.618-14.779,14.779-14.779h240.895c8.161,0,14.779,6.616,14.779,14.779v67.983
		C391.227,248.89,384.609,255.506,376.448,255.506z M150.332,225.948H361.67v-38.425H150.332V225.948L150.332,225.948z"/>
	<path style="fill:#B3404A;" d="M222.219,386.546h-86.545c-8.161,0-14.779-6.616-14.779-14.779c0-8.162,6.618-14.779,14.779-14.779
		h86.545c8.161,0,14.779,6.616,14.779,14.779C236.998,379.929,230.382,386.546,222.219,386.546z"/>
	<path style="fill:#B3404A;" d="M243.053,318.563H135.676c-8.161,0-14.779-6.617-14.779-14.779s6.618-14.779,14.779-14.779h107.377
		c8.161,0,14.779,6.616,14.779,14.779S251.215,318.563,243.053,318.563z"/>
</g>
<circle style="fill:#F4B2B0;" cx="332.48" cy="368.318" r="43.844"/>
<path style="fill:#B3404A;" d="M332.481,426.941c-32.324,0-58.623-26.297-58.623-58.622s26.299-58.623,58.623-58.623
	s58.623,26.297,58.623,58.623S364.806,426.941,332.481,426.941z M332.481,339.253c-16.028,0-29.066,13.038-29.066,29.066
	c0,16.026,13.038,29.064,29.066,29.064s29.066-13.038,29.066-29.064C361.547,352.291,348.509,339.253,332.481,339.253z"/>
</svg>